<svg data-v-fde0c5aa="" xmlns="http://www.w3.org/2000/svg" viewBox="0 0 300 300" class="iconLeft"><!----><defs data-v-fde0c5aa=""><!----></defs><rect data-v-fde0c5aa="" fill="#01252C" x="0" y="0" width="300px" height="300px" class="logo-background-square"></rect><defs data-v-fde0c5aa=""><!----></defs><g data-v-fde0c5aa="" id="7ea50ddf-766e-47d9-a2bd-23116a90d5cf" fill="#FFFFFF" transform="matrix(2.107451148027362,0,0,2.107451148027362,85.69935403405272,131.57033894676835)"><path d="M2.60 6.23C2.60 5.74 2.56 5.28 2.56 5.28L2.60 5.28C2.60 5.28 2.76 5.70 2.97 6.15L6.05 12.60L6.31 12.60L9.46 6.38C9.62 6.08 9.90 5.40 9.90 5.40L9.94 5.40C9.94 5.40 9.88 6.09 9.88 6.43L9.88 13.36L8.76 13.57L8.76 14L12.29 14L12.29 13.57L11.17 13.36L11.17 4.82L12.29 4.63L12.29 4.20L9.67 4.20L6.87 9.76C6.64 10.23 6.45 10.68 6.45 10.68L6.43 10.68C6.43 10.68 6.24 10.19 6.03 9.74L3.44 4.20L0.67 4.20L0.67 4.63L1.79 4.82L1.79 13.33L0.67 13.57L0.67 14L3.72 14L3.72 13.57L2.60 13.33ZM17.47 13.17C17.58 13.86 18.05 14.14 18.62 14.14C19.25 14.14 19.68 13.82 19.68 13.82L19.68 13.44L19.25 13.44C18.83 13.44 18.73 13.19 18.73 12.84L18.73 9.48C18.73 7.78 18.09 6.86 16.42 6.86C14.97 6.86 13.87 7.60 13.87 7.60L13.87 8.08C13.87 8.08 14.99 7.76 15.96 7.76C17.23 7.76 17.46 8.34 17.46 9.37L17.46 10.12C17.05 10.12 16.21 10.14 15.55 10.25C14.06 10.51 13.45 11.30 13.45 12.38C13.45 13.31 14.10 14.07 15.25 14.07C16.25 14.07 16.94 13.66 17.47 13.17ZM15.86 13.20C15.11 13.20 14.73 12.78 14.73 12.18C14.73 11.49 15.16 11.06 15.88 10.88C16.69 10.67 17.43 10.68 17.43 10.68L17.43 11.68C17.43 12.28 17.47 12.67 17.47 12.67C17.02 12.94 16.55 13.20 15.86 13.20ZM23.03 8.44C23.44 8.16 23.95 7.92 24.43 7.92C25.05 7.92 25.30 8.33 25.90 8.58L26.45 7.56C25.87 7.32 25.61 6.86 24.89 6.86C24.19 6.86 23.52 7.45 23.03 7.94L23.09 7L22.81 6.93L20.65 7.13L20.65 7.56L21.78 7.67L21.78 13.40L20.66 13.57L20.66 14L24.49 14L24.49 13.57L23.09 13.40L23.09 9.84C23.09 9.09 23.03 8.44 23.03 8.44ZM28.00 13.40L26.88 13.57L26.88 14L30.28 14L30.28 13.57L29.30 13.40L29.30 10.67L30.09 10.67L32.19 13.26C32.69 13.89 32.82 14 33.71 14L34.58 14L34.58 13.57C34.10 13.50 34.03 13.48 33.73 13.12L31.09 9.97L33.17 7.57L34.16 7.43L34.16 7L31.29 7L31.29 7.43L32.10 7.57L30.34 10.02L29.30 10.02L29.30 3.42L29.02 3.35L26.87 3.56L26.87 3.99L28.00 4.13ZM40.95 10.40C41.15 8.13 40.22 6.86 38.28 6.86C36.51 6.86 35.04 8.30 35.04 10.63C35.04 12.67 36.30 14.14 38.32 14.14C39.77 14.14 40.67 13.41 40.67 13.41L40.67 12.94C40.67 12.94 39.83 13.27 38.88 13.27C37.35 13.27 36.41 12.07 36.37 10.40ZM38.22 7.57C39.42 7.57 39.66 8.55 39.68 9.66L36.40 9.74C36.53 8.41 37.20 7.57 38.22 7.57ZM42.11 7.63L43.08 7.64C43.05 7.81 43.02 8.37 43.02 8.78L43.02 11.94C43.02 13.51 43.76 14.14 44.87 14.14C45.96 14.14 46.70 13.52 46.70 13.52L46.70 13.01C46.70 13.01 46.12 13.27 45.39 13.27C44.63 13.27 44.31 12.81 44.31 11.93L44.31 7.66L46.69 7.77L46.69 7L44.31 7L44.32 5.38L44.03 5.38L43.01 7L42.11 7.32ZM53.45 10.12L54.60 10.12C56.67 10.12 58.14 8.92 58.14 7.10C58.14 5.18 56.88 4.20 54.46 4.20L50.96 4.20L50.96 4.63L52.08 4.82L52.08 13.38L50.96 13.57L50.96 14L54.87 14L54.87 13.57L53.45 13.38ZM53.45 9.42L53.45 4.90L54.26 4.90C56.03 4.90 56.74 5.89 56.74 7.17C56.74 8.54 55.96 9.42 54.60 9.42ZM61.53 8.44C61.94 8.16 62.45 7.92 62.93 7.92C63.55 7.92 63.80 8.33 64.40 8.58L64.95 7.56C64.37 7.32 64.11 6.86 63.39 6.86C62.69 6.86 62.02 7.45 61.53 7.94L61.59 7L61.31 6.93L59.15 7.13L59.15 7.56L60.28 7.67L60.28 13.40L59.16 13.57L59.16 14L62.99 14L62.99 13.57L61.59 13.40L61.59 9.84C61.59 9.09 61.53 8.44 61.53 8.44ZM67.38 5.22C67.91 5.22 68.26 4.91 68.26 4.40C68.26 3.93 67.96 3.64 67.45 3.64C66.93 3.64 66.56 3.93 66.56 4.42C66.56 4.90 66.91 5.22 67.38 5.22ZM67.79 6.93L65.63 7.13L65.63 7.56L66.77 7.67L66.77 13.40L65.65 13.57L65.65 14L69.19 14L69.19 13.57L68.07 13.40L68.07 7ZM73.30 7.59C74.05 7.59 74.55 8.19 75.36 8.30L75.64 7.17C74.98 7.10 74.58 6.86 73.71 6.86C71.62 6.86 70.21 8.47 70.21 10.63C70.21 12.67 71.33 14.14 73.35 14.14C74.75 14.14 75.56 13.41 75.56 13.41L75.56 12.94C75.56 12.94 74.82 13.27 73.81 13.27C72.34 13.27 71.54 12.00 71.54 10.26C71.54 9.04 72.11 7.59 73.30 7.59ZM82.68 10.40C82.88 8.13 81.96 6.86 80.01 6.86C78.25 6.86 76.78 8.30 76.78 10.63C76.78 12.67 78.04 14.14 80.05 14.14C81.51 14.14 82.40 13.41 82.40 13.41L82.40 12.94C82.40 12.94 81.56 13.27 80.61 13.27C79.09 13.27 78.15 12.07 78.11 10.40ZM79.95 7.57C81.16 7.57 81.40 8.55 81.41 9.66L78.13 9.74C78.26 8.41 78.93 7.57 79.95 7.57Z"></path></g><defs data-v-fde0c5aa=""><!----></defs><g data-v-fde0c5aa="" id="3e41cbc7-8bd3-49e5-8d4e-6d31e9fb236b" stroke="none" fill="#88DF95" transform="matrix(1.0659479324220573,0,0,1.0659479324220573,40.00036770830218,132.9445524050299)"><g clip-rule="evenodd"><path d="M31.415 10.586l-10-10a2.002 2.002 0 0 0-3.326.822c-.453 1.469-1.236 2.746-2.395 3.904-1.548 1.547-3.564 2.719-5.697 3.958-2.264 1.312-4.603 2.672-6.52 4.588C1.848 15.489.739 17.303.089 19.409a2.002 2.002 0 0 0 .496 2.006l10 10a2.002 2.002 0 0 0 3.326-.824c.454-1.469 1.237-2.746 2.397-3.904 1.547-1.547 3.562-2.717 5.697-3.955 2.262-1.314 4.602-2.674 6.518-4.59 1.629-1.629 2.738-3.445 3.389-5.551a2.004 2.004 0 0 0-.497-2.005zM12 30L2 20c2.842-9.201 15.16-8.799 18-18l10.002 10C27.159 21.199 14.841 20.799 12 30z"></path><path d="M19.562 14.9c-.326-.273-.654-.459-.984-.551a2.864 2.864 0 0 0-.988-.105 3.54 3.54 0 0 0-1 .229 13.73 13.73 0 0 0-1.014.438 56.818 56.818 0 0 0-1.611-1.793c.242-.219.477-.33.703-.338.227-.01.445.014.652.066.211.053.404.098.582.133a.538.538 0 0 0 .473-.119.664.664 0 0 0 .236-.482c.01-.197-.064-.389-.229-.576a1.293 1.293 0 0 0-.77-.443 2.377 2.377 0 0 0-.93.021c-.316.072-.617.191-.902.359s-.514.34-.684.508l-.195-.184a.376.376 0 0 0-.27-.1.35.35 0 0 0-.273.133.36.36 0 0 0-.092.285.36.36 0 0 0 .127.252c.065.055.13.109.195.166-.256.309-.467.65-.633 1.01a3.376 3.376 0 0 0-.305 1.066c-.039.35-.002.67.105.967.107.299.305.553.594.793.471.391 1.025.557 1.668.52.641-.039 1.332-.23 2.075-.629.59.682 1.182 1.359 1.773 1.988-.25.211-.469.332-.662.371a1.035 1.035 0 0 1-.521-.01 1.657 1.657 0 0 1-.434-.209 3.048 3.048 0 0 0-.395-.234c-.129-.064-.262-.1-.398-.102s-.281.064-.441.201c-.164.143-.246.309-.246.496 0 .186.086.375.254.566.17.191.391.352.658.479s.569.207.901.229a2.5 2.5 0 0 0 1.051-.164c.371-.135.738-.379 1.1-.742.174.17.35.332.525.488a.36.36 0 0 0 .273.088.363.363 0 0 0 .27-.141.386.386 0 0 0 .094-.293.341.341 0 0 0-.125-.244 13.1 13.1 0 0 1-.527-.445c.299-.367.539-.754.717-1.137.178-.385.283-.756.318-1.1a1.965 1.965 0 0 0-.119-.941c-.112-.287-.311-.533-.596-.77zm-5.591.678a.971.971 0 0 1-.746-.291.733.733 0 0 1-.195-.322 1.004 1.004 0 0 1-.039-.418c.014-.15.059-.307.137-.465.074-.158.184-.316.324-.469a35.667 35.667 0 0 1 1.52 1.629c-.384.211-.718.324-1.001.336zm4.717 2.002c-.09.166-.193.314-.314.443a40.863 40.863 0 0 1-1.68-1.826c.143-.064.293-.131.455-.199s.324-.113.486-.141c.166-.025.33-.018.494.021.162.041.316.129.459.268.141.141.23.287.266.445.039.16.041.322.014.488a1.612 1.612 0 0 1-.18.501zM14.717 22.18h-.002a17.95 17.95 0 0 0-1.8 1.553 14.612 14.612 0 0 0-1.461 1.699l-.684.934.002.002a.503.503 0 0 0 .066.627.504.504 0 0 0 .71 0 .47.47 0 0 0 .074-.1l.639-.875c.396-.541.854-1.074 1.361-1.58a15.86 15.86 0 0 1 1.714-1.475l-.002-.002c.018-.014.035-.025.051-.041a.5.5 0 0 0-.668-.742zM18.378 7.715c-.523.523-1.09.994-1.678 1.443a.506.506 0 0 0-.117.801c.191.193.5.197.699.014l.004.002c.625-.48 1.234-.988 1.799-1.553a14.693 14.693 0 0 0 1.461-1.697l.684-.938-.002-.002a.504.504 0 0 0-.738-.684.545.545 0 0 0-.088.123l-.664.91a13.514 13.514 0 0 1-1.36 1.581z"></path></g></g><!----></svg>